<svg xmlns="http://www.w3.org/2000/svg" xmlns:xlink="http://www.w3.org/1999/xlink" width="5000" zoomAndPan="magnify" viewBox="0 0 3750 3749.999967" height="5000" preserveAspectRatio="xMidYMid meet" version="1.0"><defs><g/><clipPath id="0d6ca7a9bf"><path d="M 0.960938 0.441406 L 2890 0.441406 L 2890 934 L 0.960938 934 Z M 0.960938 0.441406 " clip-rule="nonzero"/></clipPath><clipPath id="8acfe04675"><rect x="0" width="2890" y="0" height="934"/></clipPath><clipPath id="3acfc7f256"><rect x="0" width="588" y="0" height="924"/></clipPath><clipPath id="412c6af02b"><path d="M 836.53125 632.167969 L 938.464844 632.167969 L 938.464844 732.777344 L 836.53125 732.777344 Z M 836.53125 632.167969 " clip-rule="nonzero"/></clipPath><clipPath id="ef53494427"><path d="M 0.53125 0.167969 L 102.464844 0.167969 L 102.464844 100.777344 L 0.53125 100.777344 Z M 0.53125 0.167969 " clip-rule="nonzero"/></clipPath><clipPath id="ce5c25f7a5"><rect x="0" width="103" y="0" height="101"/></clipPath><clipPath id="0e54c74c32"><path d="M 25 851 L 2911.917969 851 L 2911.917969 1010.121094 L 25 1010.121094 Z M 25 851 " clip-rule="nonzero"/></clipPath><clipPath id="431bedcaf7"><rect x="0" width="2887" y="0" height="160"/></clipPath><clipPath id="0b1812cda7"><rect x="0" width="2912" y="0" height="1011"/></clipPath></defs><g transform="matrix(1, 0, 0, 1, 432, 1369)"><g clip-path="url(#0b1812cda7)"><g clip-path="url(#0d6ca7a9bf)"><g transform="matrix(1, 0, 0, 1, -0.000000000000113687, 0)"><g clip-path="url(#8acfe04675)"><g fill="#ffffff" fill-opacity="1"><g transform="translate(1.04768, 739.977789)"><g><path d="M 311.078125 10.890625 C 272.191406 10.890625 235.640625 3.757812 201.421875 -10.5 C 167.203125 -24.757812 137.519531 -44.332031 112.375 -69.21875 C 87.226562 -94.101562 67.265625 -123.785156 52.484375 -158.265625 C 37.710938 -192.742188 30.328125 -230.203125 30.328125 -270.640625 L 30.328125 -272.203125 C 30.328125 -311.597656 37.582031 -348.664062 52.09375 -383.40625 C 66.613281 -418.144531 86.445312 -448.085938 111.59375 -473.234375 C 136.738281 -498.378906 166.941406 -518.335938 202.203125 -533.109375 C 237.460938 -547.890625 275.570312 -555.28125 316.53125 -555.28125 C 372 -555.28125 418.398438 -544.648438 455.734375 -523.390625 C 493.066406 -502.140625 523.65625 -475.179688 547.5 -442.515625 L 433.953125 -354.625 C 418.398438 -373.8125 401.160156 -389.238281 382.234375 -400.90625 C 363.316406 -412.570312 340.894531 -418.40625 314.96875 -418.40625 C 295.78125 -418.40625 278.28125 -414.515625 262.46875 -406.734375 C 246.65625 -398.960938 233.046875 -388.59375 221.640625 -375.625 C 210.234375 -362.664062 201.289062 -347.367188 194.8125 -329.734375 C 188.332031 -312.109375 185.09375 -293.445312 185.09375 -273.75 L 185.09375 -272.203125 C 185.09375 -251.972656 188.332031 -232.914062 194.8125 -215.03125 C 201.289062 -197.144531 210.234375 -181.71875 221.640625 -168.75 C 233.046875 -155.789062 246.65625 -145.550781 262.46875 -138.03125 C 278.28125 -130.519531 295.78125 -126.765625 314.96875 -126.765625 C 342.96875 -126.765625 366.425781 -132.851562 385.34375 -145.03125 C 404.269531 -157.21875 421.769531 -173.164062 437.84375 -192.875 L 551.390625 -111.984375 C 525.984375 -76.734375 494.484375 -47.441406 456.890625 -24.109375 C 419.304688 -0.773438 370.703125 10.890625 311.078125 10.890625 Z M 311.078125 10.890625 "/></g></g></g><g fill="#ffffff" fill-opacity="1"><g transform="translate(569.597213, 739.977789)"><g/></g></g><g fill="#ffffff" fill-opacity="1"><g transform="translate(785.014588, 739.977789)"><g/></g></g><g fill="#ffffff" fill-opacity="1"><g transform="translate(1000.431962, 739.977789)"><g/></g></g><g fill="#ffffff" fill-opacity="1"><g transform="translate(1215.882345, 739.977789)"><g><path d="M 262.078125 9.328125 C 213.867188 9.328125 167.726562 1.679688 123.65625 -13.609375 C 79.582031 -28.898438 40.695312 -51.320312 7 -80.875 L 90.984375 -181.203125 C 117.953125 -159.941406 146.34375 -143.738281 176.15625 -132.59375 C 205.96875 -121.445312 236.425781 -115.875 267.53125 -115.875 C 288.269531 -115.875 303.953125 -119.242188 314.578125 -125.984375 C 325.210938 -132.722656 330.53125 -141.796875 330.53125 -153.203125 L 330.53125 -154.765625 C 330.53125 -166.171875 324.4375 -175.628906 312.25 -183.140625 C 300.0625 -190.660156 275.304688 -198.828125 237.984375 -207.640625 C 208.941406 -214.378906 181.847656 -221.765625 156.703125 -229.796875 C 131.554688 -237.835938 109.910156 -248.207031 91.765625 -260.90625 C 73.617188 -273.613281 59.226562 -289.429688 48.59375 -308.359375 C 37.96875 -327.285156 32.65625 -350.488281 32.65625 -377.96875 L 32.65625 -379.515625 C 32.65625 -404.921875 37.582031 -428.25 47.4375 -449.5 C 57.289062 -470.757812 71.160156 -489.035156 89.046875 -504.328125 C 106.929688 -519.628906 128.960938 -531.6875 155.140625 -540.5 C 181.328125 -549.3125 210.753906 -553.71875 243.421875 -553.71875 C 289.566406 -553.71875 331.046875 -547.625 367.859375 -535.4375 C 404.671875 -523.257812 437.851562 -505.242188 467.40625 -481.390625 L 391.96875 -374.859375 C 367.070312 -392.484375 341.40625 -405.832031 314.96875 -414.90625 C 288.53125 -423.976562 263.382812 -428.515625 239.53125 -428.515625 C 221.382812 -428.515625 207.773438 -425.144531 198.703125 -418.40625 C 189.628906 -411.664062 185.09375 -403.367188 185.09375 -393.515625 L 185.09375 -391.96875 C 185.09375 -379.519531 191.441406 -369.664062 204.140625 -362.40625 C 216.847656 -355.144531 242.125 -347.367188 279.96875 -339.078125 C 341.664062 -325.597656 390.789062 -306.671875 427.34375 -282.296875 C 463.894531 -257.929688 482.171875 -220.347656 482.171875 -169.546875 L 482.171875 -167.984375 C 482.171875 -140.503906 476.859375 -115.742188 466.234375 -93.703125 C 455.609375 -71.671875 440.703125 -53.007812 421.515625 -37.71875 C 402.328125 -22.425781 379.125 -10.757812 351.90625 -2.71875 C 324.6875 5.3125 294.742188 9.328125 262.078125 9.328125 Z M 262.078125 9.328125 "/></g></g></g><g fill="#ffffff" fill-opacity="1"><g transform="translate(1722.92989, 739.977789)"><g><path d="M 210.75 -581.71875 L 294.75 -707.703125 L 435.515625 -664.9375 L 320.40625 -581.71875 Z M 48.21875 0 L 48.21875 -544.390625 L 486.0625 -544.390625 L 486.0625 -416.84375 L 197.53125 -416.84375 L 197.53125 -333.640625 L 458.84375 -333.640625 L 458.84375 -214.640625 L 197.53125 -214.640625 L 197.53125 -128.328125 L 489.953125 -128.328125 L 489.953125 0 Z M 48.21875 0 "/></g></g></g><g fill="#ffffff" fill-opacity="1"><g transform="translate(2238.531855, 739.977789)"><g><path d="M 322.75 10.890625 C 280.75 10.890625 241.863281 3.503906 206.09375 -11.265625 C 170.320312 -26.046875 139.472656 -46.007812 113.546875 -71.15625 C 87.617188 -96.300781 67.265625 -126.113281 52.484375 -160.59375 C 37.710938 -195.070312 30.328125 -231.753906 30.328125 -270.640625 L 30.328125 -272.203125 C 30.328125 -311.085938 37.84375 -347.765625 52.875 -382.234375 C 67.914062 -416.710938 88.394531 -446.785156 114.3125 -472.453125 C 140.238281 -498.117188 171.21875 -518.335938 207.25 -533.109375 C 243.289062 -547.890625 282.304688 -555.28125 324.296875 -555.28125 C 366.296875 -555.28125 405.179688 -547.890625 440.953125 -533.109375 C 476.734375 -518.335938 507.582031 -498.378906 533.5 -473.234375 C 559.425781 -448.085938 579.773438 -418.273438 594.546875 -383.796875 C 609.328125 -349.316406 616.71875 -312.632812 616.71875 -273.75 L 616.71875 -272.203125 C 616.71875 -233.316406 609.195312 -196.632812 594.15625 -162.15625 C 579.125 -127.675781 558.644531 -97.601562 532.71875 -71.9375 C 506.800781 -46.269531 475.820312 -26.046875 439.78125 -11.265625 C 403.75 3.503906 364.738281 10.890625 322.75 10.890625 Z M 324.296875 -125.203125 C 345.035156 -125.203125 363.832031 -129.09375 380.6875 -136.875 C 397.539062 -144.65625 411.925781 -155.15625 423.84375 -168.375 C 435.769531 -181.59375 445.101562 -197.015625 451.84375 -214.640625 C 458.582031 -232.273438 461.953125 -250.941406 461.953125 -270.640625 L 461.953125 -272.203125 C 461.953125 -291.898438 458.582031 -310.691406 451.84375 -328.578125 C 445.101562 -346.460938 435.640625 -362.015625 423.453125 -375.234375 C 411.273438 -388.460938 396.628906 -399.09375 379.515625 -407.125 C 362.410156 -415.164062 343.488281 -419.1875 322.75 -419.1875 C 302.007812 -419.1875 283.082031 -415.296875 265.96875 -407.515625 C 248.863281 -399.734375 234.347656 -389.234375 222.421875 -376.015625 C 210.492188 -362.796875 201.160156 -347.367188 194.421875 -329.734375 C 187.679688 -312.109375 184.3125 -293.445312 184.3125 -273.75 L 184.3125 -272.203125 C 184.3125 -252.492188 187.679688 -233.695312 194.421875 -215.8125 C 201.160156 -197.925781 210.625 -182.367188 222.8125 -169.140625 C 235 -155.921875 249.773438 -145.289062 267.140625 -137.25 C 284.503906 -129.21875 303.554688 -125.203125 324.296875 -125.203125 Z M 324.296875 -125.203125 "/></g></g></g></g></g></g><g transform="matrix(1, 0, 0, 1, 592, 5)"><g clip-path="url(#3acfc7f256)"><g fill="#f48221" fill-opacity="1"><g transform="translate(587.702007, 192.190409)"><g><path d="M -222.984375 -3.84375 L -5.375 538.234375 L -171.46875 538.234375 L -293.71875 197.609375 L -416.75 538.234375 L -579.75 538.234375 L -361.390625 -3.84375 Z M -222.984375 -3.84375 "/></g></g></g></g></g><g clip-path="url(#412c6af02b)"><g transform="matrix(1, 0, 0, 1, 836, 632)"><g clip-path="url(#ce5c25f7a5)"><g clip-path="url(#ef53494427)"><path fill="#f48221" d="M 0.53125 0.167969 L 102.320312 0.167969 L 102.320312 100.777344 L 0.53125 100.777344 Z M 0.53125 0.167969 " fill-opacity="1" fill-rule="nonzero"/></g></g></g></g><g clip-path="url(#0e54c74c32)"><g transform="matrix(1, 0, 0, 1, 25, 851)"><g clip-path="url(#431bedcaf7)"><g fill="#ffffff" fill-opacity="1"><g transform="translate(1.272392, 123.815059)"><g><path d="M 55.40625 1.609375 C 48.5 1.609375 42.085938 0.351562 36.171875 -2.15625 C 30.253906 -4.664062 25.144531 -8.09375 20.84375 -12.4375 C 16.539062 -16.78125 13.175781 -21.910156 10.75 -27.828125 C 8.332031 -33.742188 7.125 -40.066406 7.125 -46.796875 L 7.125 -47.0625 C 7.125 -53.789062 8.332031 -60.085938 10.75 -65.953125 C 13.175781 -71.828125 16.539062 -76.984375 20.84375 -81.421875 C 25.144531 -85.859375 30.296875 -89.351562 36.296875 -91.90625 C 42.304688 -94.457031 48.941406 -95.734375 56.203125 -95.734375 C 60.597656 -95.734375 64.609375 -95.375 68.234375 -94.65625 C 71.867188 -93.945312 75.164062 -92.960938 78.125 -91.703125 C 81.082031 -90.453125 83.816406 -88.929688 86.328125 -87.140625 C 88.835938 -85.347656 91.171875 -83.375 93.328125 -81.21875 L 80.140625 -66.03125 C 76.460938 -69.34375 72.71875 -71.9375 68.90625 -73.8125 C 65.101562 -75.695312 60.828125 -76.640625 56.078125 -76.640625 C 52.128906 -76.640625 48.472656 -75.878906 45.109375 -74.359375 C 41.753906 -72.835938 38.863281 -70.726562 36.4375 -68.03125 C 34.019531 -65.34375 32.140625 -62.226562 30.796875 -58.6875 C 29.453125 -55.15625 28.78125 -51.367188 28.78125 -47.328125 L 28.78125 -47.0625 C 28.78125 -43.03125 29.453125 -39.21875 30.796875 -35.625 C 32.140625 -32.039062 34 -28.90625 36.375 -26.21875 C 38.75 -23.53125 41.613281 -21.398438 44.96875 -19.828125 C 48.332031 -18.265625 52.035156 -17.484375 56.078125 -17.484375 C 61.453125 -17.484375 66 -18.46875 69.71875 -20.4375 C 73.4375 -22.40625 77.132812 -25.09375 80.8125 -28.5 L 94 -15.1875 C 91.570312 -12.59375 89.054688 -10.265625 86.453125 -8.203125 C 83.859375 -6.140625 81.015625 -4.367188 77.921875 -2.890625 C 74.828125 -1.410156 71.441406 -0.289062 67.765625 0.46875 C 64.097656 1.226562 59.976562 1.609375 55.40625 1.609375 Z M 55.40625 1.609375 "/></g></g></g><g fill="#ffffff" fill-opacity="1"><g transform="translate(150.262946, 123.815059)"><g><path d="M 50.5625 1.484375 C 37.914062 1.484375 27.960938 -2.007812 20.703125 -9 C 13.441406 -16 9.8125 -26.445312 9.8125 -40.34375 L 9.8125 -94.125 L 30.53125 -94.125 L 30.53125 -40.875 C 30.53125 -33.164062 32.320312 -27.359375 35.90625 -23.453125 C 39.488281 -19.554688 44.460938 -17.609375 50.828125 -17.609375 C 57.191406 -17.609375 62.164062 -19.488281 65.75 -23.25 C 69.34375 -27.019531 71.140625 -32.671875 71.140625 -40.203125 L 71.140625 -94.125 L 91.84375 -94.125 L 91.84375 -41.015625 C 91.84375 -33.835938 90.878906 -27.601562 88.953125 -22.3125 C 87.023438 -17.03125 84.265625 -12.617188 80.671875 -9.078125 C 77.085938 -5.535156 72.738281 -2.890625 67.625 -1.140625 C 62.519531 0.609375 56.832031 1.484375 50.5625 1.484375 Z M 50.5625 1.484375 "/></g></g></g><g fill="#ffffff" fill-opacity="1"><g transform="translate(301.673679, 123.815059)"><g><path d="M 12.234375 -94.125 L 32.9375 -94.125 L 32.9375 0 L 12.234375 0 Z M 12.234375 -94.125 "/></g></g></g><g fill="#ffffff" fill-opacity="1"><g transform="translate(396.614117, 123.815059)"><g><path d="M 44.78125 1.34375 C 37.601562 1.34375 30.5625 0.113281 23.65625 -2.34375 C 16.757812 -4.8125 10.488281 -8.601562 4.84375 -13.71875 L 17.078125 -28.375 C 21.378906 -24.875 25.789062 -22.09375 30.3125 -20.03125 C 34.84375 -17.96875 39.800781 -16.9375 45.1875 -16.9375 C 49.488281 -16.9375 52.828125 -17.722656 55.203125 -19.296875 C 57.578125 -20.867188 58.765625 -23.039062 58.765625 -25.8125 L 58.765625 -26.09375 C 58.765625 -27.4375 58.515625 -28.625 58.015625 -29.65625 C 57.523438 -30.6875 56.582031 -31.648438 55.1875 -32.546875 C 53.800781 -33.441406 51.875 -34.335938 49.40625 -35.234375 C 46.945312 -36.128906 43.742188 -37.066406 39.796875 -38.046875 C 35.046875 -39.210938 30.742188 -40.515625 26.890625 -41.953125 C 23.035156 -43.390625 19.765625 -45.160156 17.078125 -47.265625 C 14.390625 -49.367188 12.304688 -51.988281 10.828125 -55.125 C 9.347656 -58.269531 8.609375 -62.171875 8.609375 -66.828125 L 8.609375 -67.09375 C 8.609375 -71.394531 9.414062 -75.269531 11.03125 -78.71875 C 12.644531 -82.175781 14.90625 -85.160156 17.8125 -87.671875 C 20.726562 -90.179688 24.203125 -92.109375 28.234375 -93.453125 C 32.273438 -94.796875 36.710938 -95.46875 41.546875 -95.46875 C 48.453125 -95.46875 54.796875 -94.4375 60.578125 -92.375 C 66.359375 -90.3125 71.671875 -87.351562 76.515625 -83.5 L 65.75 -67.90625 C 61.539062 -70.769531 57.414062 -73.03125 53.375 -74.6875 C 49.34375 -76.351562 45.3125 -77.1875 41.28125 -77.1875 C 37.25 -77.1875 34.222656 -76.398438 32.203125 -74.828125 C 30.191406 -73.265625 29.1875 -71.316406 29.1875 -68.984375 L 29.1875 -68.71875 C 29.1875 -67.1875 29.472656 -65.859375 30.046875 -64.734375 C 30.628906 -63.617188 31.679688 -62.613281 33.203125 -61.71875 C 34.734375 -60.820312 36.820312 -59.96875 39.46875 -59.15625 C 42.113281 -58.351562 45.453125 -57.414062 49.484375 -56.34375 C 54.234375 -55.082031 58.46875 -53.664062 62.1875 -52.09375 C 65.90625 -50.53125 69.039062 -48.648438 71.59375 -46.453125 C 74.15625 -44.265625 76.085938 -41.691406 77.390625 -38.734375 C 78.691406 -35.773438 79.34375 -32.234375 79.34375 -28.109375 L 79.34375 -27.828125 C 79.34375 -23.171875 78.488281 -19.023438 76.78125 -15.390625 C 75.082031 -11.765625 72.707031 -8.71875 69.65625 -6.25 C 66.601562 -3.789062 62.96875 -1.910156 58.75 -0.609375 C 54.539062 0.691406 49.882812 1.34375 44.78125 1.34375 Z M 44.78125 1.34375 "/></g></g></g><g fill="#ffffff" fill-opacity="1"><g transform="translate(532.428277, 123.815059)"><g><path d="M 12.234375 -94.125 L 32.9375 -94.125 L 32.9375 0 L 12.234375 0 Z M 12.234375 -94.125 "/></g></g></g><g fill="#ffffff" fill-opacity="1"><g transform="translate(627.368716, 123.815059)"><g><path d="M 11.296875 -94.125 L 30.390625 -94.125 L 74.5 -36.171875 L 74.5 -94.125 L 94.9375 -94.125 L 94.9375 0 L 77.3125 0 L 31.734375 -59.84375 L 31.734375 0 L 11.296875 0 Z M 11.296875 -94.125 "/></g></g></g><g fill="#ffffff" fill-opacity="1"><g transform="translate(783.35084, 123.815059)"><g><path d="M 11.296875 -94.125 L 82.296875 -94.125 L 82.296875 -75.703125 L 31.875 -75.703125 L 31.875 -56.609375 L 76.25 -56.609375 L 76.25 -38.1875 L 31.875 -38.1875 L 31.875 -18.421875 L 82.96875 -18.421875 L 82.96875 0 L 11.296875 0 Z M 11.296875 -94.125 "/></g></g></g><g fill="#ffffff" fill-opacity="1"><g transform="translate(923.198607, 123.815059)"><g><path d="M 44.78125 1.34375 C 37.601562 1.34375 30.5625 0.113281 23.65625 -2.34375 C 16.757812 -4.8125 10.488281 -8.601562 4.84375 -13.71875 L 17.078125 -28.375 C 21.378906 -24.875 25.789062 -22.09375 30.3125 -20.03125 C 34.84375 -17.96875 39.800781 -16.9375 45.1875 -16.9375 C 49.488281 -16.9375 52.828125 -17.722656 55.203125 -19.296875 C 57.578125 -20.867188 58.765625 -23.039062 58.765625 -25.8125 L 58.765625 -26.09375 C 58.765625 -27.4375 58.515625 -28.625 58.015625 -29.65625 C 57.523438 -30.6875 56.582031 -31.648438 55.1875 -32.546875 C 53.800781 -33.441406 51.875 -34.335938 49.40625 -35.234375 C 46.945312 -36.128906 43.742188 -37.066406 39.796875 -38.046875 C 35.046875 -39.210938 30.742188 -40.515625 26.890625 -41.953125 C 23.035156 -43.390625 19.765625 -45.160156 17.078125 -47.265625 C 14.390625 -49.367188 12.304688 -51.988281 10.828125 -55.125 C 9.347656 -58.269531 8.609375 -62.171875 8.609375 -66.828125 L 8.609375 -67.09375 C 8.609375 -71.394531 9.414062 -75.269531 11.03125 -78.71875 C 12.644531 -82.175781 14.90625 -85.160156 17.8125 -87.671875 C 20.726562 -90.179688 24.203125 -92.109375 28.234375 -93.453125 C 32.273438 -94.796875 36.710938 -95.46875 41.546875 -95.46875 C 48.453125 -95.46875 54.796875 -94.4375 60.578125 -92.375 C 66.359375 -90.3125 71.671875 -87.351562 76.515625 -83.5 L 65.75 -67.90625 C 61.539062 -70.769531 57.414062 -73.03125 53.375 -74.6875 C 49.34375 -76.351562 45.3125 -77.1875 41.28125 -77.1875 C 37.25 -77.1875 34.222656 -76.398438 32.203125 -74.828125 C 30.191406 -73.265625 29.1875 -71.316406 29.1875 -68.984375 L 29.1875 -68.71875 C 29.1875 -67.1875 29.472656 -65.859375 30.046875 -64.734375 C 30.628906 -63.617188 31.679688 -62.613281 33.203125 -61.71875 C 34.734375 -60.820312 36.820312 -59.96875 39.46875 -59.15625 C 42.113281 -58.351562 45.453125 -57.414062 49.484375 -56.34375 C 54.234375 -55.082031 58.46875 -53.664062 62.1875 -52.09375 C 65.90625 -50.53125 69.039062 -48.648438 71.59375 -46.453125 C 74.15625 -44.265625 76.085938 -41.691406 77.390625 -38.734375 C 78.691406 -35.773438 79.34375 -32.234375 79.34375 -28.109375 L 79.34375 -27.828125 C 79.34375 -23.171875 78.488281 -19.023438 76.78125 -15.390625 C 75.082031 -11.765625 72.707031 -8.71875 69.65625 -6.25 C 66.601562 -3.789062 62.96875 -1.910156 58.75 -0.609375 C 54.539062 0.691406 49.882812 1.34375 44.78125 1.34375 Z M 44.78125 1.34375 "/></g></g></g><g fill="#ffffff" fill-opacity="1"><g transform="translate(1059.012767, 123.815059)"><g/></g></g><g fill="#ffffff" fill-opacity="1"><g transform="translate(1149.112849, 123.815059)"><g><path d="M 63.734375 -9.140625 C 59.878906 -6.003906 55.6875 -3.472656 51.15625 -1.546875 C 46.632812 0.378906 41.640625 1.34375 36.171875 1.34375 C 31.691406 1.34375 27.523438 0.71875 23.671875 -0.53125 C 19.816406 -1.789062 16.472656 -3.609375 13.640625 -5.984375 C 10.816406 -8.359375 8.597656 -11.203125 6.984375 -14.515625 C 5.378906 -17.835938 4.578125 -21.601562 4.578125 -25.8125 L 4.578125 -26.09375 C 4.578125 -32.09375 6.144531 -37.222656 9.28125 -41.484375 C 12.414062 -45.742188 16.941406 -49.21875 22.859375 -51.90625 C 20.523438 -55.132812 18.84375 -58.269531 17.8125 -61.3125 C 16.78125 -64.363281 16.265625 -67.503906 16.265625 -70.734375 L 16.265625 -71 C 16.265625 -74.226562 16.890625 -77.320312 18.140625 -80.28125 C 19.398438 -83.238281 21.238281 -85.859375 23.65625 -88.140625 C 26.082031 -90.429688 29.066406 -92.269531 32.609375 -93.65625 C 36.148438 -95.039062 40.207031 -95.734375 44.78125 -95.734375 C 48.8125 -95.734375 52.441406 -95.128906 55.671875 -93.921875 C 58.898438 -92.710938 61.675781 -91.03125 64 -88.875 C 66.332031 -86.726562 68.125 -84.21875 69.375 -81.34375 C 70.632812 -78.476562 71.265625 -75.390625 71.265625 -72.078125 L 71.265625 -71.8125 C 71.265625 -68.664062 70.789062 -65.816406 69.84375 -63.265625 C 68.90625 -60.710938 67.5625 -58.445312 65.8125 -56.46875 C 64.070312 -54.5 61.988281 -52.753906 59.5625 -51.234375 C 57.144531 -49.710938 54.457031 -48.367188 51.5 -47.203125 L 64 -34.6875 C 65.53125 -37.113281 67.054688 -39.691406 68.578125 -42.421875 C 70.097656 -45.160156 71.625 -47.960938 73.15625 -50.828125 L 88.34375 -42.484375 C 86.550781 -39.171875 84.625 -35.8125 82.5625 -32.40625 C 80.5 -29 78.300781 -25.726562 75.96875 -22.59375 L 89.828125 -8.734375 L 74.625 1.875 Z M 40.75 -58.09375 C 44.863281 -59.613281 47.972656 -61.335938 50.078125 -63.265625 C 52.191406 -65.191406 53.25 -67.632812 53.25 -70.59375 L 53.25 -70.859375 C 53.25 -73.554688 52.421875 -75.6875 50.765625 -77.25 C 49.109375 -78.820312 46.976562 -79.609375 44.375 -79.609375 C 41.59375 -79.609375 39.375 -78.734375 37.71875 -76.984375 C 36.0625 -75.234375 35.234375 -72.925781 35.234375 -70.0625 L 35.234375 -69.796875 C 35.234375 -67.734375 35.65625 -65.828125 36.5 -64.078125 C 37.351562 -62.328125 38.769531 -60.332031 40.75 -58.09375 Z M 38.59375 -15.59375 C 40.925781 -15.59375 43.234375 -16.0625 45.515625 -17 C 47.804688 -17.945312 50.023438 -19.273438 52.171875 -20.984375 L 34.15625 -39.265625 C 31.019531 -37.648438 28.78125 -35.765625 27.4375 -33.609375 C 26.09375 -31.460938 25.421875 -29.222656 25.421875 -26.890625 L 25.421875 -26.625 C 25.421875 -23.3125 26.648438 -20.644531 29.109375 -18.625 C 31.578125 -16.601562 34.738281 -15.59375 38.59375 -15.59375 Z M 38.59375 -15.59375 "/></g></g></g><g fill="#ffffff" fill-opacity="1"><g transform="translate(1292.456368, 123.815059)"><g/></g></g><g fill="#ffffff" fill-opacity="1"><g transform="translate(1382.556385, 123.815059)"><g><path d="M 11.296875 -94.125 L 33.625 -94.125 L 58.359375 -54.328125 L 83.109375 -94.125 L 105.421875 -94.125 L 105.421875 0 L 84.84375 0 L 84.84375 -61.453125 L 58.359375 -21.25 L 57.828125 -21.25 L 31.59375 -61.046875 L 31.59375 0 L 11.296875 0 Z M 11.296875 -94.125 "/></g></g></g><g fill="#ffffff" fill-opacity="1"><g transform="translate(1549.025835, 123.815059)"><g><path d="M 11.296875 -94.125 L 82.296875 -94.125 L 82.296875 -75.703125 L 31.875 -75.703125 L 31.875 -56.609375 L 76.25 -56.609375 L 76.25 -38.1875 L 31.875 -38.1875 L 31.875 -18.421875 L 82.96875 -18.421875 L 82.96875 0 L 11.296875 0 Z M 11.296875 -94.125 "/></g></g></g><g fill="#ffffff" fill-opacity="1"><g transform="translate(1688.873602, 123.815059)"><g><path d="M 11.296875 -94.125 L 30.390625 -94.125 L 74.5 -36.171875 L 74.5 -94.125 L 94.9375 -94.125 L 94.9375 0 L 77.3125 0 L 31.734375 -59.84375 L 31.734375 0 L 11.296875 0 Z M 11.296875 -94.125 "/></g></g></g><g fill="#ffffff" fill-opacity="1"><g transform="translate(1844.855796, 123.815059)"><g><path d="M 50.5625 1.484375 C 37.914062 1.484375 27.960938 -2.007812 20.703125 -9 C 13.441406 -16 9.8125 -26.445312 9.8125 -40.34375 L 9.8125 -94.125 L 30.53125 -94.125 L 30.53125 -40.875 C 30.53125 -33.164062 32.320312 -27.359375 35.90625 -23.453125 C 39.488281 -19.554688 44.460938 -17.609375 50.828125 -17.609375 C 57.191406 -17.609375 62.164062 -19.488281 65.75 -23.25 C 69.34375 -27.019531 71.140625 -32.671875 71.140625 -40.203125 L 71.140625 -94.125 L 91.84375 -94.125 L 91.84375 -41.015625 C 91.84375 -33.835938 90.878906 -27.601562 88.953125 -22.3125 C 87.023438 -17.03125 84.265625 -12.617188 80.671875 -9.078125 C 77.085938 -5.535156 72.738281 -2.890625 67.625 -1.140625 C 62.519531 0.609375 56.832031 1.484375 50.5625 1.484375 Z M 50.5625 1.484375 "/></g></g></g><g fill="#ffffff" fill-opacity="1"><g transform="translate(1996.266529, 123.815059)"><g><path d="M 12.234375 -94.125 L 32.9375 -94.125 L 32.9375 0 L 12.234375 0 Z M 12.234375 -94.125 "/></g></g></g><g fill="#ffffff" fill-opacity="1"><g transform="translate(2091.206897, 123.815059)"><g><path d="M 44.78125 1.34375 C 37.601562 1.34375 30.5625 0.113281 23.65625 -2.34375 C 16.757812 -4.8125 10.488281 -8.601562 4.84375 -13.71875 L 17.078125 -28.375 C 21.378906 -24.875 25.789062 -22.09375 30.3125 -20.03125 C 34.84375 -17.96875 39.800781 -16.9375 45.1875 -16.9375 C 49.488281 -16.9375 52.828125 -17.722656 55.203125 -19.296875 C 57.578125 -20.867188 58.765625 -23.039062 58.765625 -25.8125 L 58.765625 -26.09375 C 58.765625 -27.4375 58.515625 -28.625 58.015625 -29.65625 C 57.523438 -30.6875 56.582031 -31.648438 55.1875 -32.546875 C 53.800781 -33.441406 51.875 -34.335938 49.40625 -35.234375 C 46.945312 -36.128906 43.742188 -37.066406 39.796875 -38.046875 C 35.046875 -39.210938 30.742188 -40.515625 26.890625 -41.953125 C 23.035156 -43.390625 19.765625 -45.160156 17.078125 -47.265625 C 14.390625 -49.367188 12.304688 -51.988281 10.828125 -55.125 C 9.347656 -58.269531 8.609375 -62.171875 8.609375 -66.828125 L 8.609375 -67.09375 C 8.609375 -71.394531 9.414062 -75.269531 11.03125 -78.71875 C 12.644531 -82.175781 14.90625 -85.160156 17.8125 -87.671875 C 20.726562 -90.179688 24.203125 -92.109375 28.234375 -93.453125 C 32.273438 -94.796875 36.710938 -95.46875 41.546875 -95.46875 C 48.453125 -95.46875 54.796875 -94.4375 60.578125 -92.375 C 66.359375 -90.3125 71.671875 -87.351562 76.515625 -83.5 L 65.75 -67.90625 C 61.539062 -70.769531 57.414062 -73.03125 53.375 -74.6875 C 49.34375 -76.351562 45.3125 -77.1875 41.28125 -77.1875 C 37.25 -77.1875 34.222656 -76.398438 32.203125 -74.828125 C 30.191406 -73.265625 29.1875 -71.316406 29.1875 -68.984375 L 29.1875 -68.71875 C 29.1875 -67.1875 29.472656 -65.859375 30.046875 -64.734375 C 30.628906 -63.617188 31.679688 -62.613281 33.203125 -61.71875 C 34.734375 -60.820312 36.820312 -59.96875 39.46875 -59.15625 C 42.113281 -58.351562 45.453125 -57.414062 49.484375 -56.34375 C 54.234375 -55.082031 58.46875 -53.664062 62.1875 -52.09375 C 65.90625 -50.53125 69.039062 -48.648438 71.59375 -46.453125 C 74.15625 -44.265625 76.085938 -41.691406 77.390625 -38.734375 C 78.691406 -35.773438 79.34375 -32.234375 79.34375 -28.109375 L 79.34375 -27.828125 C 79.34375 -23.171875 78.488281 -19.023438 76.78125 -15.390625 C 75.082031 -11.765625 72.707031 -8.71875 69.65625 -6.25 C 66.601562 -3.789062 62.96875 -1.910156 58.75 -0.609375 C 54.539062 0.691406 49.882812 1.34375 44.78125 1.34375 Z M 44.78125 1.34375 "/></g></g></g><g fill="#ffffff" fill-opacity="1"><g transform="translate(2227.021123, 123.815059)"><g><path d="M 11.296875 -94.125 L 82.296875 -94.125 L 82.296875 -75.703125 L 31.875 -75.703125 L 31.875 -56.609375 L 76.25 -56.609375 L 76.25 -38.1875 L 31.875 -38.1875 L 31.875 -18.421875 L 82.96875 -18.421875 L 82.96875 0 L 11.296875 0 Z M 11.296875 -94.125 "/></g></g></g><g fill="#ffffff" fill-opacity="1"><g transform="translate(2366.86889, 123.815059)"><g><path d="M 11.296875 -94.125 L 54.328125 -94.125 C 66.242188 -94.125 75.382812 -90.941406 81.75 -84.578125 C 87.132812 -79.203125 89.828125 -72.03125 89.828125 -63.0625 L 89.828125 -62.796875 C 89.828125 -55.171875 87.96875 -48.960938 84.25 -44.171875 C 80.53125 -39.378906 75.664062 -35.863281 69.65625 -33.625 L 92.65625 0 L 68.4375 0 L 48.28125 -30.125 L 32 -30.125 L 32 0 L 11.296875 0 Z M 52.984375 -48.40625 C 58.085938 -48.40625 62.003906 -49.613281 64.734375 -52.03125 C 67.472656 -54.457031 68.84375 -57.6875 68.84375 -61.71875 L 68.84375 -61.984375 C 68.84375 -66.472656 67.40625 -69.835938 64.53125 -72.078125 C 61.664062 -74.316406 57.679688 -75.4375 52.578125 -75.4375 L 32 -75.4375 L 32 -48.40625 Z M 52.984375 -48.40625 "/></g></g></g><g fill="#ffffff" fill-opacity="1"><g transform="translate(2513.842806, 123.815059)"><g><path d="M 12.234375 -94.125 L 32.9375 -94.125 L 32.9375 0 L 12.234375 0 Z M 12.234375 -94.125 "/></g></g></g><g fill="#ffffff" fill-opacity="1"><g transform="translate(2608.783043, 123.815059)"><g><path d="M 11.296875 -94.125 L 82.296875 -94.125 L 82.296875 -75.703125 L 31.875 -75.703125 L 31.875 -56.609375 L 76.25 -56.609375 L 76.25 -38.1875 L 31.875 -38.1875 L 31.875 -18.421875 L 82.96875 -18.421875 L 82.96875 0 L 11.296875 0 Z M 11.296875 -94.125 "/></g></g></g><g fill="#ffffff" fill-opacity="1"><g transform="translate(2748.63081, 123.815059)"><g><path d="M 44.78125 1.34375 C 37.601562 1.34375 30.5625 0.113281 23.65625 -2.34375 C 16.757812 -4.8125 10.488281 -8.601562 4.84375 -13.71875 L 17.078125 -28.375 C 21.378906 -24.875 25.789062 -22.09375 30.3125 -20.03125 C 34.84375 -17.96875 39.800781 -16.9375 45.1875 -16.9375 C 49.488281 -16.9375 52.828125 -17.722656 55.203125 -19.296875 C 57.578125 -20.867188 58.765625 -23.039062 58.765625 -25.8125 L 58.765625 -26.09375 C 58.765625 -27.4375 58.515625 -28.625 58.015625 -29.65625 C 57.523438 -30.6875 56.582031 -31.648438 55.1875 -32.546875 C 53.800781 -33.441406 51.875 -34.335938 49.40625 -35.234375 C 46.945312 -36.128906 43.742188 -37.066406 39.796875 -38.046875 C 35.046875 -39.210938 30.742188 -40.515625 26.890625 -41.953125 C 23.035156 -43.390625 19.765625 -45.160156 17.078125 -47.265625 C 14.390625 -49.367188 12.304688 -51.988281 10.828125 -55.125 C 9.347656 -58.269531 8.609375 -62.171875 8.609375 -66.828125 L 8.609375 -67.09375 C 8.609375 -71.394531 9.414062 -75.269531 11.03125 -78.71875 C 12.644531 -82.175781 14.90625 -85.160156 17.8125 -87.671875 C 20.726562 -90.179688 24.203125 -92.109375 28.234375 -93.453125 C 32.273438 -94.796875 36.710938 -95.46875 41.546875 -95.46875 C 48.453125 -95.46875 54.796875 -94.4375 60.578125 -92.375 C 66.359375 -90.3125 71.671875 -87.351562 76.515625 -83.5 L 65.75 -67.90625 C 61.539062 -70.769531 57.414062 -73.03125 53.375 -74.6875 C 49.34375 -76.351562 45.3125 -77.1875 41.28125 -77.1875 C 37.25 -77.1875 34.222656 -76.398438 32.203125 -74.828125 C 30.191406 -73.265625 29.1875 -71.316406 29.1875 -68.984375 L 29.1875 -68.71875 C 29.1875 -67.1875 29.472656 -65.859375 30.046875 -64.734375 C 30.628906 -63.617188 31.679688 -62.613281 33.203125 -61.71875 C 34.734375 -60.820312 36.820312 -59.96875 39.46875 -59.15625 C 42.113281 -58.351562 45.453125 -57.414062 49.484375 -56.34375 C 54.234375 -55.082031 58.46875 -53.664062 62.1875 -52.09375 C 65.90625 -50.53125 69.039062 -48.648438 71.59375 -46.453125 C 74.15625 -44.265625 76.085938 -41.691406 77.390625 -38.734375 C 78.691406 -35.773438 79.34375 -32.234375 79.34375 -28.109375 L 79.34375 -27.828125 C 79.34375 -23.171875 78.488281 -19.023438 76.78125 -15.390625 C 75.082031 -11.765625 72.707031 -8.71875 69.65625 -6.25 C 66.601562 -3.789062 62.96875 -1.910156 58.75 -0.609375 C 54.539062 0.691406 49.882812 1.34375 44.78125 1.34375 Z M 44.78125 1.34375 "/></g></g></g></g></g></g></g></g></svg>